<svg width="203" height="259" viewBox="0 0 203 259" fill="none" xmlns="http://www.w3.org/2000/svg">
<rect width="35.9625" height="15.0975" rx="0.1" transform="matrix(0.50565 -0.862738 -0.869251 -0.494371 44.5095 111.82)" fill="#E78200"/>
<path fill-rule="evenodd" clip-rule="evenodd" d="M42.8838 138.478C37.0576 135.165 29.6442 137.145 26.3081 142.837C22.9721 148.529 24.9378 155.844 30.764 159.157C36.5902 162.471 44.0036 160.49 47.3396 154.798C50.6757 149.106 48.71 141.792 42.8838 138.478ZM35.0118 133.996C30.4419 134.542 26.1792 137.125 23.7004 141.354C19.5158 148.494 21.9991 157.623 29.247 161.745C36.4949 165.867 45.7628 163.421 49.9474 156.281C52.4263 152.052 52.5653 147.124 50.76 142.953L82.5823 88.6579L90.6632 74.8703C91.2217 73.9173 90.8962 72.7021 89.936 72.1561L59.2919 54.7278C58.3318 54.1817 57.1006 54.5116 56.5421 55.4645L49.4725 67.5267C48.9139 68.4796 49.2395 69.6948 50.1997 70.2409L66.8341 79.7014L35.0118 133.996Z" fill="#33364D"/>
<rect width="36.234" height="14.9844" rx="0.1" transform="matrix(0.869251 0.494371 0.505651 -0.862739 88.535 40.8899)" fill="#E78200"/>
<path fill-rule="evenodd" clip-rule="evenodd" d="M61.8225 38.6987C64.6872 33.1026 62.6601 26.1776 57.037 22.9796C51.2108 19.666 43.7974 21.6464 40.4613 27.3383C37.1253 33.0303 39.091 40.3448 44.9172 43.6584C50.5403 46.8564 57.6418 45.1232 61.1293 39.8813L61.8225 38.6987ZM66.023 31.534C65.469 27.0323 62.8475 22.8332 58.5539 20.3914C51.306 16.2693 42.0382 18.7155 37.8536 25.8552C33.669 32.995 36.1523 42.1245 43.4002 46.2466C47.6938 48.6885 52.6961 48.8254 56.9307 47.0471L112.049 78.3944L126.058 86.3621C127.018 86.9082 128.25 86.5783 128.808 85.6254L146.485 55.4646C147.044 54.5116 146.718 53.2964 145.758 52.7503L133.487 45.7713C132.527 45.2252 131.296 45.5551 130.737 46.508L121.141 62.8812L66.023 31.534Z" fill="#33364D"/>
<rect width="35.9625" height="15.0975" rx="0.1" transform="matrix(-0.505651 0.862739 0.869251 0.494371 161.49 87.2437)" fill="#E78200"/>
<path fill-rule="evenodd" clip-rule="evenodd" d="M163.116 60.5858C168.942 63.8993 176.356 61.919 179.692 56.227C183.028 50.5351 181.062 43.2206 175.236 39.907C169.41 36.5934 161.996 38.5738 158.66 44.2657C155.324 49.9577 157.29 57.2722 163.116 60.5858ZM170.988 65.0677C175.558 64.522 179.821 61.9396 182.3 57.7102C186.484 50.5704 184.001 41.4409 176.753 37.3188C169.505 33.1967 160.237 35.6429 156.053 42.7826C153.574 47.0121 153.435 51.9398 155.24 56.1112L123.418 110.406L115.337 124.194C114.778 125.147 115.104 126.362 116.064 126.908L146.708 144.336C147.668 144.882 148.899 144.553 149.458 143.6L156.528 131.537C157.086 130.584 156.76 129.369 155.8 128.823L139.166 119.363L170.988 65.0677Z" fill="#33364D"/>
<rect width="36.234" height="14.9844" rx="0.1" transform="matrix(-0.869251 -0.494371 -0.50565 0.862739 116.515 159.11)" fill="#E78200"/>
<path fill-rule="evenodd" clip-rule="evenodd" d="M143.227 161.301C140.363 166.898 142.39 173.822 148.013 177.02C153.839 180.334 161.253 178.354 164.589 172.662C167.925 166.97 165.959 159.655 160.133 156.342C154.51 153.144 147.408 154.877 143.921 160.119L143.227 161.301ZM139.027 168.466C139.581 172.968 142.202 177.167 146.496 179.609C153.744 183.731 163.012 181.284 167.196 174.145C171.381 167.005 168.898 157.876 161.65 153.753C157.356 151.312 152.354 151.175 148.119 152.953L93.0014 121.606L78.9917 113.638C78.0316 113.092 76.8005 113.422 76.2419 114.375L58.5647 144.535C58.0062 145.488 58.3318 146.704 59.2919 147.25L71.5631 154.229C72.5233 154.775 73.7544 154.445 74.3129 153.492L83.9092 137.119L139.027 168.466Z" fill="#33364D"/>
<path d="M19.718 224.027C21.5461 224.027 23.2453 223.816 24.8156 223.395C26.4094 222.949 27.7453 222.469 28.8234 221.953C29.9016 221.414 30.4406 221.121 30.4406 221.074L32.4445 224.414C32.4445 224.508 31.8703 224.93 30.7219 225.68C29.5734 226.406 28.05 227.098 26.1516 227.754C24.2531 228.387 22.1086 228.703 19.718 228.703C14.3977 228.703 10.3078 227.039 7.44844 223.711C4.58907 220.383 3.15938 215.93 3.15938 210.352C3.15938 204.727 4.4836 200.227 7.13203 196.852C9.80391 193.477 13.7063 191.789 18.8391 191.789C28.05 191.789 32.6672 197.379 32.6906 208.559L31.4602 210.949H9.90938C10.05 214.559 10.9641 217.641 12.6516 220.195C14.3391 222.75 16.6945 224.027 19.718 224.027ZM18.5578 195.516C15.8156 195.516 13.7766 196.629 12.4406 198.855C11.1047 201.059 10.2844 203.859 9.97969 207.258L25.9758 206.098L26.0461 204.656C26.0461 201.961 25.4133 199.77 24.1477 198.082C22.882 196.371 21.0188 195.516 18.5578 195.516ZM72.247 188.555C72.0127 186.68 71.7548 185.191 71.4736 184.09C71.4267 183.621 70.9463 182.801 70.0322 181.629C67.3838 181.395 65.4384 181.277 64.1963 181.277H59.5205C59.1923 184.629 59.0166 187.289 58.9931 189.258V215.977C58.9931 217.312 59.0517 218.719 59.1689 220.195C59.3095 221.648 59.4267 222.785 59.5205 223.605L65.9892 224.098L65.497 228.352C64.9111 228.305 63.6103 228.234 61.5947 228.141C59.5791 228.047 57.3759 228 54.9853 228C53.6963 228.047 52.1494 228.105 50.3447 228.176C48.54 228.246 47.2509 228.305 46.4775 228.352L46.1259 224.766L51.8213 223.605C52.2431 220.77 52.4541 218.941 52.4541 218.121V187.113C52.4541 186.434 52.3134 185.086 52.0322 183.07L51.8213 181.277H47.2861C46.0439 181.277 44.0986 181.395 41.4502 181.629C40.5361 182.777 40.0556 183.598 40.0088 184.09C39.7275 185.191 39.458 186.68 39.2002 188.555L35.0166 188.168L35.5439 177.832L36.915 176.531C37.6416 176.625 39.0361 176.766 41.0986 176.953C43.1611 177.141 44.497 177.234 45.1064 177.234H66.3408C66.9736 177.234 68.3213 177.141 70.3838 176.953C72.4463 176.766 73.8408 176.625 74.5673 176.531L75.9384 177.832L76.4306 188.168L72.247 188.555ZM88.1784 176.145C89.5144 176.145 90.5456 176.555 91.2722 177.375C92.0222 178.195 92.3972 179.355 92.3972 180.855C92.3972 182.238 92.0222 183.352 91.2722 184.195C90.5456 185.039 89.5144 185.461 88.1784 185.461C86.8425 185.461 85.7995 185.039 85.0495 184.195C84.2995 183.352 83.9245 182.238 83.9245 180.855C83.9245 179.473 84.2878 178.348 85.0144 177.48C85.7644 176.59 86.8191 176.145 88.1784 176.145ZM97.0027 228.352C96.5808 228.305 95.5261 228.234 93.8386 228.141C92.1745 228.047 90.1355 228 87.7214 228C86.4792 228.047 85.0144 228.105 83.3269 228.176C81.6628 228.246 80.4675 228.305 79.7409 228.352L79.3894 224.766L84.8386 223.605C84.9324 223.184 85.073 222.316 85.2605 221.004C85.4714 219.668 85.5769 218.707 85.5769 218.121V202.582C85.5769 201.996 85.4714 201.047 85.2605 199.734C85.073 198.422 84.9324 197.543 84.8386 197.098L79.3894 195.973L79.7409 192.141C80.3269 192.188 81.2995 192.246 82.6589 192.316C84.0183 192.387 85.2488 192.422 86.3503 192.422H90.5339L91.905 193.723C91.8581 194.543 91.7644 196.219 91.6238 198.75C91.4831 201.258 91.4128 203.25 91.4128 204.727V215.977C91.4128 217.453 91.4831 218.977 91.6238 220.547C91.7644 222.117 91.8581 223.137 91.905 223.605L97.53 224.098L97.0027 228.352ZM111.844 176.145C113.18 176.145 114.223 176.555 114.973 177.375C115.723 178.195 116.098 179.355 116.098 180.855C116.098 182.238 115.723 183.352 114.973 184.195C114.223 185.039 113.18 185.461 111.844 185.461C110.508 185.461 109.465 185.039 108.715 184.195C107.965 183.352 107.59 182.238 107.59 180.855C107.59 179.473 107.954 178.348 108.68 177.48C109.43 176.59 110.485 176.145 111.844 176.145ZM103.829 192.141C104.415 192.188 105.387 192.246 106.747 192.316C108.129 192.387 109.372 192.422 110.473 192.422H114.657L116.028 193.723C115.981 194.543 115.875 196.219 115.711 198.75C115.571 201.258 115.5 203.25 115.5 204.727V228.703C115.5 229.57 114.856 231.199 113.567 233.59C112.278 236.004 110.93 238.324 109.524 240.551C108.141 242.801 107.227 244.254 106.782 244.91L104.215 243.398C104.497 242.672 105.071 241.137 105.938 238.793C106.805 236.449 107.637 234.023 108.434 231.516C109.254 229.031 109.665 227.355 109.665 226.488V219.562V202.582C109.665 201.949 109.571 200.988 109.383 199.699C109.196 198.41 109.055 197.543 108.961 197.098L103.477 195.973L103.829 192.141ZM149.713 222.305C148.823 224.133 147.276 225.656 145.073 226.875C142.893 228.094 140.631 228.703 138.287 228.703C135.076 228.703 132.533 227.883 130.658 226.242C128.783 224.578 127.846 222.328 127.846 219.492C127.846 214.172 131.057 210.984 137.479 209.93L149.01 207.996V205.605C149.01 198.973 146.748 195.656 142.225 195.656C141.03 195.656 139.823 195.797 138.604 196.078C137.385 196.336 136.319 196.676 135.405 197.098L134.912 200.121V203.074L130.729 203.32L129.92 193.512C134.233 192.363 138.58 191.789 142.963 191.789C147.229 191.789 150.276 192.961 152.104 195.305C153.932 197.625 154.846 201.539 154.846 207.047V215.977C154.846 217.453 154.94 218.977 155.127 220.547C155.315 222.117 155.455 223.137 155.549 223.605L160.541 224.098L160.014 228.352C159.592 228.305 158.537 228.234 156.85 228.141C155.186 228.047 153.147 228 150.733 228L149.713 222.305ZM138.709 213.586C137.28 213.844 136.166 214.406 135.369 215.273C134.573 216.117 134.174 217.172 134.174 218.438C134.174 220.266 134.631 221.672 135.545 222.656C136.459 223.617 137.76 224.098 139.448 224.098C141.838 224.098 143.936 223.336 145.74 221.812C147.545 220.266 148.635 218.32 149.01 215.977V211.652L138.709 213.586ZM178.582 198.469C179.988 196.172 181.617 194.484 183.469 193.406C185.344 192.328 187.582 191.789 190.184 191.789C191.285 191.789 192.316 191.883 193.277 192.07C194.238 192.258 194.836 192.398 195.07 192.492L194.367 204.375L190.184 204.164V200.367C190.184 199.992 189.844 198.785 189.164 196.746H188.883C185.672 196.793 183.293 197.73 181.746 199.559C180.223 201.387 179.391 204.047 179.25 207.539V215.977C179.25 217.453 179.32 218.977 179.461 220.547C179.602 222.117 179.695 223.137 179.742 223.605L186.809 224.098L186.281 228.352C185.695 228.305 184.359 228.234 182.273 228.141C180.211 228.047 177.973 228 175.559 228C174.316 228.047 172.852 228.105 171.164 228.176C169.5 228.246 168.305 228.305 167.578 228.352L167.227 224.766L172.676 223.605C172.77 223.184 172.91 222.316 173.098 221.004C173.309 219.668 173.414 218.707 173.414 218.121V202.582C173.414 201.996 173.309 201.047 173.098 199.734C172.91 198.422 172.77 197.543 172.676 197.098L167.227 195.973L167.578 192.141C168.164 192.188 169.137 192.246 170.496 192.316C171.855 192.387 173.086 192.422 174.188 192.422H176.789L178.16 193.723L178.582 198.469Z" fill="#33364D"/>
</svg>
