<svg width="200" height="200" viewBox="0 0 200 200" fill="none" xmlns="http://www.w3.org/2000/svg">
<rect width="35.9625" height="15.0975" rx="0.1" transform="matrix(0.50565 -0.862738 -0.869251 -0.494371 41.5095 111.82)" fill="#E78200"/>
<path fill-rule="evenodd" clip-rule="evenodd" d="M39.8838 138.478C34.0576 135.165 26.6442 137.145 23.3081 142.837C19.9721 148.529 21.9378 155.844 27.764 159.157C33.5902 162.471 41.0036 160.49 44.3396 154.798C47.6757 149.106 45.71 141.792 39.8838 138.478ZM32.0118 133.996C27.4419 134.542 23.1792 137.125 20.7004 141.354C16.5158 148.494 18.9991 157.623 26.247 161.745C33.4949 165.867 42.7628 163.421 46.9474 156.281C49.4263 152.052 49.5653 147.124 47.76 142.953L79.5823 88.6579L87.6632 74.8703C88.2217 73.9173 87.8962 72.7021 86.936 72.1561L56.2919 54.7278C55.3318 54.1817 54.1006 54.5116 53.5421 55.4645L46.4725 67.5267C45.9139 68.4796 46.2395 69.6948 47.1997 70.2409L63.8341 79.7014L32.0118 133.996Z" fill="#33364D"/>
<rect width="36.234" height="14.9844" rx="0.1" transform="matrix(0.869251 0.494371 0.505651 -0.862739 85.535 40.8899)" fill="#E78200"/>
<path fill-rule="evenodd" clip-rule="evenodd" d="M58.8225 38.6987C61.6872 33.1026 59.6601 26.1776 54.037 22.9796C48.2108 19.666 40.7974 21.6464 37.4613 27.3383C34.1253 33.0303 36.091 40.3448 41.9172 43.6584C47.5403 46.8564 54.6418 45.1232 58.1293 39.8813L58.8225 38.6987ZM63.023 31.534C62.469 27.0323 59.8475 22.8332 55.5539 20.3914C48.306 16.2693 39.0382 18.7155 34.8536 25.8552C30.669 32.995 33.1523 42.1245 40.4002 46.2466C44.6938 48.6885 49.6961 48.8254 53.9307 47.0471L109.049 78.3944L123.058 86.3621C124.018 86.9082 125.25 86.5783 125.808 85.6254L143.485 55.4646C144.044 54.5116 143.718 53.2964 142.758 52.7503L130.487 45.7713C129.527 45.2252 128.296 45.5551 127.737 46.508L118.141 62.8812L63.023 31.534Z" fill="#33364D"/>
<rect width="35.9625" height="15.0975" rx="0.1" transform="matrix(-0.505651 0.862739 0.869251 0.494371 158.49 87.2437)" fill="#E78200"/>
<path fill-rule="evenodd" clip-rule="evenodd" d="M160.116 60.5858C165.942 63.8993 173.356 61.919 176.692 56.227C180.028 50.5351 178.062 43.2206 172.236 39.907C166.41 36.5934 158.996 38.5738 155.66 44.2657C152.324 49.9577 154.29 57.2722 160.116 60.5858ZM167.988 65.0677C172.558 64.522 176.821 61.9396 179.3 57.7102C183.484 50.5704 181.001 41.4409 173.753 37.3188C166.505 33.1967 157.237 35.6429 153.053 42.7826C150.574 47.0121 150.435 51.9398 152.24 56.1112L120.418 110.406L112.337 124.194C111.778 125.147 112.104 126.362 113.064 126.908L143.708 144.336C144.668 144.882 145.899 144.553 146.458 143.6L153.528 131.537C154.086 130.584 153.76 129.369 152.8 128.823L136.166 119.363L167.988 65.0677Z" fill="#33364D"/>
<rect width="36.234" height="14.9844" rx="0.1" transform="matrix(-0.869251 -0.494371 -0.50565 0.862739 113.515 159.11)" fill="#E78200"/>
<path fill-rule="evenodd" clip-rule="evenodd" d="M140.227 161.301C137.363 166.898 139.39 173.822 145.013 177.02C150.839 180.334 158.253 178.354 161.589 172.662C164.925 166.97 162.959 159.655 157.133 156.342C151.51 153.144 144.408 154.877 140.921 160.119L140.227 161.301ZM136.027 168.466C136.581 172.968 139.202 177.167 143.496 179.609C150.744 183.731 160.012 181.284 164.196 174.145C168.381 167.005 165.898 157.876 158.65 153.753C154.356 151.312 149.354 151.175 145.119 152.953L90.0014 121.606L75.9917 113.638C75.0316 113.092 73.8005 113.422 73.2419 114.375L55.5647 144.535C55.0062 145.488 55.3318 146.704 56.2919 147.25L68.5631 154.229C69.5233 154.775 70.7544 154.445 71.3129 153.492L80.9092 137.119L136.027 168.466Z" fill="#33364D"/>
</svg>
